<svg width="1002" height="749" viewBox="0 0 1002 749" fill="none" xmlns="http://www.w3.org/2000/svg">
<rect width="1002" height="615" rx="49" fill="#6765C5"/>
<rect x="15" y="48" width="973" height="550" rx="49" fill="white"/>
<path d="M0 528H1002V566C1002 593.062 980.062 615 953 615H44C19.6995 615 0 595.301 0 571V528Z" fill="#6765C5"/>
<path d="M8 538H993V566C993 588.091 975.091 606 953 606H48C25.9086 606 8 588.091 8 566V538Z" fill="white"/>
<path d="M424.112 613H576.382L643 719H361L424.112 613Z" fill="#6765C5"/>
<g filter="url(#filter0_i_56_26)">
<path d="M428.531 615H572.162L635 715H369L428.531 615Z" fill="white"/>
</g>
<circle cx="502" cy="573" r="25" fill="#6765C5"/>
<circle cx="501" cy="572" r="22" fill="white"/>
<path d="M252 140C252 131.716 258.716 125 267 125H737C745.284 125 752 131.716 752 140V490H252V140Z" fill="#6765C5"/>
<path d="M256 164H749V484H256V164Z" fill="white"/>
<rect x="695.177" y="130" width="37.4369" height="4.49243" rx="2.24621" transform="rotate(45 695.177 130)" fill="white"/>
<rect x="692.151" y="156.622" width="37.4369" height="4.49242" rx="2.24621" transform="rotate(-45 692.151 156.622)" fill="white"/>
<path d="M377.682 322.498C377.855 323.482 377.892 324.458 377.791 325.423C377.691 326.388 377.376 327.29 376.847 328.128C376.654 328.568 376.287 329.175 375.746 329.947C375.193 330.654 374.458 331.663 373.538 332.976C371.186 335.76 368.988 338.653 366.945 341.653C364.967 344.642 363.078 347.75 361.278 350.979C360.652 352.037 360.032 353.128 359.418 354.251C358.804 355.375 358.36 356.503 358.085 357.634C357.811 358.766 357.778 359.922 357.986 361.104C358.26 362.274 358.967 363.402 360.106 364.488C362.153 366.496 364.28 368.389 366.489 370.165C368.698 371.942 371.032 373.663 373.492 375.328C374.971 376.421 376.444 377.481 377.911 378.509C379.444 379.525 380.912 380.552 382.314 381.591C384.167 382.889 385.414 384.395 386.055 386.11C386.684 387.759 386.786 389.298 386.361 390.727C385.936 392.156 385.021 393.299 383.615 394.156C382.275 395.002 380.518 395.21 378.344 394.781C377.212 394.506 376.084 394.062 374.961 393.448C373.849 392.899 372.752 392.247 371.671 391.49C370.578 390.667 369.518 389.838 368.491 389.004C367.464 388.17 366.514 387.389 365.641 386.663C350.902 375.249 343.144 367.343 342.369 362.944C341.778 359.596 343.318 354.315 346.988 347.101C348.421 344.479 350.034 341.724 351.826 338.836C353.607 335.882 355.656 332.914 357.973 329.933C359.379 327.925 360.824 325.944 362.307 323.99C363.845 321.959 365.592 320.161 367.551 318.598C368.389 317.976 369.339 317.605 370.401 317.486C371.517 317.289 372.581 317.372 373.593 317.735C374.593 318.033 375.469 318.589 376.222 319.404C376.975 320.219 377.462 321.25 377.682 322.498ZM406.213 389.359C405.425 389.498 404.647 389.5 403.878 389.364C403.11 389.229 402.423 388.978 401.816 388.611C401.21 388.244 400.718 387.756 400.339 387.145C399.961 386.535 399.762 385.792 399.743 384.915C399.141 383.803 398.923 382.758 399.089 381.781C399.243 380.738 399.497 379.678 399.848 378.601L399.75 378.618C401.145 373.092 402.491 367.676 403.79 362.37C405.142 356.986 406.599 351.619 408.16 346.266C409.516 341.288 410.754 336.602 411.875 332.208C412.995 327.813 414.095 323.49 415.173 319.238C415.374 318.458 415.64 317.666 415.972 316.863C416.305 316.06 416.732 315.409 417.253 314.911C417.763 314.347 418.4 313.93 419.165 313.66C419.929 313.39 420.91 313.386 422.108 313.649C423.942 314.07 425.369 314.868 426.388 316.042C427.473 317.204 428.002 318.668 427.975 320.433C427.472 322.959 427.059 325.028 426.734 326.643C426.464 328.18 426.143 329.624 425.772 330.976C425.467 332.316 425.102 333.7 424.677 335.129C424.252 336.558 423.699 338.415 423.019 340.701C422.405 342.976 421.626 345.855 420.683 349.338C419.795 352.744 418.674 357.139 417.322 362.522C416.614 365.422 415.851 368.197 415.032 370.846C414.279 373.484 413.525 376.121 412.772 378.759C412.505 379.551 412.235 380.512 411.961 381.644C411.675 382.71 411.373 383.88 411.056 385.154C410.728 386.363 410.118 387.317 409.225 388.015C408.333 388.714 407.329 389.162 406.213 389.359ZM477.019 336.257C477.706 337.083 478.143 338.022 478.328 339.072C478.579 340.111 478.523 341.137 478.16 342.148C477.777 343.434 477.068 344.405 476.033 345.062C475.052 345.641 473.876 345.882 472.505 345.785C471.891 345.758 471.325 345.621 470.808 345.374C470.291 345.127 469.74 344.885 469.157 344.65C468.628 344.337 468.006 344.074 467.292 343.862C466.643 343.637 465.815 343.547 464.807 343.589C463.799 343.631 462.716 343.822 461.557 344.162C460.464 344.49 459.493 344.932 458.643 345.488C457.326 346.465 456.374 347.784 455.787 349.444C455.188 351.039 454.908 352.713 454.946 354.467C454.973 356.154 455.301 357.823 455.93 359.472C456.625 361.109 457.602 362.426 458.861 363.423C459.811 364.203 460.961 364.779 462.313 365.15C463.73 365.509 465.041 365.65 466.246 365.573C467.385 365.507 468.502 365.311 469.595 364.983C470.676 364.589 471.713 364.135 472.705 363.622C473.435 363.154 474.247 362.571 475.139 361.873C476.019 361.108 476.908 360.579 477.804 360.286C478.985 360.077 479.962 360.244 480.735 360.784C481.495 361.259 482.088 361.933 482.513 362.806C482.926 363.613 483.121 364.527 483.098 365.546C483.14 366.554 482.929 367.471 482.466 368.298C481.852 369.422 480.903 370.57 479.621 371.744C478.327 372.852 477.058 373.719 475.815 374.345C474.332 375.148 472.611 375.756 470.653 376.169C468.761 376.57 466.944 376.823 465.202 376.927C464.391 376.934 463.541 376.915 462.653 376.869C461.765 376.822 460.904 376.737 460.069 376.613C456.995 376.072 454.306 375.023 452 373.467C449.749 371.833 447.884 369.894 446.405 367.65C444.992 365.394 443.977 362.899 443.359 360.165C442.742 357.431 442.59 354.648 442.903 351.818C443.174 349.13 443.678 346.807 444.416 344.849C445.219 342.879 446.245 341.209 447.493 339.839C448.794 338.391 450.306 337.176 452.029 336.195C453.74 335.149 455.665 334.167 457.805 333.248C460.022 332.383 462.451 331.955 465.092 331.963C467.734 331.971 470.182 332.419 472.437 333.308C474.164 333.883 475.691 334.866 477.019 336.257ZM497.415 325.857C499.396 324.425 501.528 323.27 503.81 322.394C506.093 321.518 508.406 321.008 510.75 320.866C513.16 320.712 515.535 320.936 517.875 321.539C520.281 322.13 522.56 323.15 524.711 324.598C526.487 325.842 528.124 327.449 529.622 329.419C531.109 331.323 532.294 333.246 533.178 335.189C534.931 338.603 535.738 342.218 535.598 346.033C535.459 349.849 534.715 353.5 533.366 356.987C532.702 358.594 531.785 360.109 530.614 361.534C529.498 362.882 528.248 364.05 526.866 365.038C525.058 366.305 523.034 367.305 520.794 368.038C518.566 368.837 516.351 369.329 514.15 369.514C510.176 370.012 506.523 369.641 503.19 368.401C499.923 367.149 497.127 365.307 494.803 362.873C492.544 360.428 490.812 357.518 489.608 354.143C488.457 350.69 488.05 347.038 488.387 343.188C488.743 339.064 489.691 335.613 491.233 332.837C492.828 329.983 494.889 327.657 497.415 325.857ZM502.696 338.533C501.873 339.626 501.321 340.908 501.039 342.379C500.756 343.85 500.683 345.353 500.818 346.886C500.941 348.353 501.3 349.813 501.895 351.265C502.543 352.64 503.366 353.849 504.362 354.892C505.192 355.761 506.519 356.373 508.341 356.729C510.164 357.084 512.006 357.166 513.868 356.973C515.992 356.734 517.732 355.852 519.087 354.326C520.432 352.735 521.33 350.919 521.782 348.876C522.3 346.821 522.329 344.684 521.87 342.463C521.41 340.242 520.461 338.311 519.02 336.67C518.001 335.496 516.717 334.74 515.168 334.404C513.674 333.991 512.139 333.923 510.563 334.201C509.042 334.401 507.572 334.897 506.155 335.689C504.726 336.415 503.573 337.363 502.696 338.533ZM565.773 288.723C566.963 288.174 568.041 287.951 569.006 288.051C570.026 288.075 570.921 288.357 571.694 288.897C572.532 289.427 573.202 290.155 573.704 291.081C574.271 291.997 574.659 293.045 574.867 294.227C575.512 297.498 575.963 300.059 576.222 301.909C576.546 303.747 576.83 305.356 577.073 306.734L582.404 336.968C583.029 340.513 583.55 343.468 583.967 345.831C584.383 348.195 584.594 350.155 584.597 351.711C584.655 353.19 584.452 354.343 583.989 355.169C583.591 355.984 582.857 356.621 581.787 357.081C580.729 357.606 579.28 358.03 577.442 358.354C575.669 358.667 573.437 359.06 570.745 359.535C563.655 360.785 557.746 360.101 553.02 357.482C548.359 354.851 545.254 349.915 543.707 342.674C543.02 339.546 542.904 336.588 543.36 333.8C543.817 331.011 544.769 328.542 546.217 326.391C547.72 324.163 549.698 322.325 552.15 320.877C554.657 319.352 557.623 318.321 561.048 317.785L566.465 316.83L563.356 299.202C563.171 298.151 562.992 297.134 562.818 296.149C562.633 295.098 562.563 294.129 562.61 293.241C562.645 292.287 562.9 291.429 563.375 290.669C563.85 289.908 564.65 289.259 565.773 288.723ZM558.275 346.401C559.99 348.062 562.67 348.672 566.316 348.233C567.049 348.171 567.744 348.082 568.401 347.966C569.046 347.785 569.619 347.582 570.122 347.358C570.701 347.189 571.242 346.992 571.744 346.768L568.531 328.549C566.164 328.56 564.022 328.701 562.107 328.971C560.245 329.164 558.523 330.144 556.939 331.913C556.093 332.874 555.518 334.025 555.212 335.365C554.896 336.64 554.826 337.972 555.003 339.362C555.169 340.687 555.532 341.977 556.092 343.232C556.652 344.487 557.379 345.544 558.275 346.401ZM625.428 335.271C626.182 334.935 626.946 334.665 627.722 334.46C628.564 334.244 629.337 334.209 630.04 334.356C630.808 334.492 631.48 334.847 632.055 335.422C632.619 335.932 632.999 336.745 633.196 337.861C633.335 338.649 633.271 339.439 633.005 340.231C632.738 341.022 632.362 341.766 631.875 342.461C631.388 343.156 630.824 343.797 630.183 344.384C629.53 344.905 628.899 345.355 628.289 345.733C626.535 346.922 624.452 347.967 622.038 348.866C619.69 349.754 617.191 350.364 614.541 350.696C610.973 351.19 607.437 351.102 603.935 350.434C600.486 349.688 597.582 348 595.223 345.369C593.007 342.782 591.422 339.744 590.468 336.257C589.515 332.769 589.089 329.392 589.19 326.125C589.24 322.189 589.911 318.89 591.201 316.225C592.545 313.483 594.305 311.176 596.479 309.303C599.133 307.075 602.292 305.604 605.957 304.891C609.622 304.177 613.262 304.279 616.877 305.199C619.282 305.79 621.522 306.783 623.596 308.178C625.658 309.506 627.357 311.271 628.693 313.473C629.06 314.017 629.384 314.705 629.666 315.535C630.013 316.354 630.307 317.25 630.546 318.223C630.774 319.131 630.936 320.05 631.032 320.981C631.128 321.911 631.109 322.761 630.974 323.53C630.788 324.781 630.458 325.787 629.983 326.548C629.508 327.308 628.839 327.934 627.978 328.424C627.117 328.914 626.041 329.341 624.751 329.704C623.516 329.99 622.017 330.321 620.256 330.7C618.692 331.043 617.22 331.336 615.842 331.58C614.463 331.823 613.051 332.072 611.607 332.326C610.151 332.515 608.635 332.749 607.06 333.027C605.538 333.227 603.819 333.462 601.904 333.733C601.938 335.08 602.305 336.2 603.004 337.093C603.757 337.907 604.684 338.556 605.784 339.039C606.873 339.457 608.07 339.719 609.376 339.828C610.681 339.936 611.93 339.919 613.124 339.776C615.379 339.514 617.484 338.973 619.438 338.155C621.381 337.271 623.378 336.309 625.428 335.271ZM617.825 316.912C616.323 315.688 614.825 314.869 613.33 314.456C612.199 314.181 611.048 314.181 609.878 314.455C608.761 314.652 607.707 315.007 606.714 315.52C604.892 316.316 603.457 317.584 602.41 319.326C602.302 319.48 602.13 319.849 601.894 320.432C601.647 320.95 601.405 321.5 601.17 322.083C601 322.655 600.89 323.182 600.839 323.664C600.789 324.147 600.895 324.365 601.158 324.319L620.46 320.916C620.232 320.008 619.935 319.282 619.568 318.737C619.19 318.127 618.609 317.519 617.825 316.912ZM632.795 277.514C632.575 276.267 632.679 275.132 633.108 274.108C633.537 273.085 634.17 272.262 635.008 271.641C635.835 270.953 636.773 270.517 637.824 270.332C638.928 270.069 639.981 270.087 640.981 270.384C643.356 271.184 645.58 272.281 647.654 273.676C649.781 274.993 651.849 276.355 653.857 277.761C657.055 279.769 659.995 281.857 662.679 284.024C665.351 286.125 667.809 288.163 670.052 290.136C675.968 295.66 679.221 300.096 679.811 303.444C680.587 307.843 676.002 317.925 666.055 333.692C665.483 334.673 664.858 335.731 664.178 336.866C663.498 338.002 662.785 339.143 662.04 340.29C661.283 341.371 660.475 342.359 659.618 343.255C658.772 344.217 657.864 345.02 656.895 345.665C654.999 346.811 653.243 347.222 651.629 346.898C650.08 346.562 648.862 345.795 647.974 344.598C647.086 343.4 646.656 341.919 646.683 340.154C646.699 338.324 647.355 336.482 648.653 334.628C649.615 333.172 650.61 331.711 651.637 330.243C652.73 328.764 653.785 327.258 654.801 325.725C656.543 323.32 658.148 320.904 659.616 318.479C661.083 316.054 662.435 313.548 663.672 310.961C664.305 309.563 664.551 308.267 664.408 307.074C664.265 305.88 663.871 304.799 663.227 303.83C662.582 302.86 661.779 301.953 660.817 301.107C659.856 300.261 658.9 299.448 657.95 298.668C655.154 296.25 652.283 293.98 649.337 291.86C646.456 289.728 643.435 287.756 640.272 285.944C638.959 285.025 637.922 284.327 637.162 283.852C636.389 283.312 635.837 282.867 635.505 282.52C634.721 281.913 634.117 281.174 633.692 280.301C633.267 279.428 632.968 278.499 632.795 277.514Z" fill="#6765C5"/>
<path d="M754.071 365.892L814.211 304.61L837.991 328.39L754.07 416L754.071 365.892Z" fill="#6765C5"/>
<g filter="url(#filter1_d_56_26)">
<circle cx="878" cy="268" r="74" fill="#6765C5"/>
</g>
<g filter="url(#filter2_i_56_26)">
<circle cx="877.5" cy="265.5" r="67.5" fill="white"/>
</g>
<path d="M891 319.5C920 309 931.5 284.5 931.5 265.5" stroke="#6765C5" stroke-width="5"/>
<g filter="url(#filter3_d_56_26)">
<rect x="381" y="697" width="241" height="44" fill="#D9D9D9"/>
</g>
<g filter="url(#filter4_d_56_26)">
<rect x="211" y="697" width="565" height="44" fill="#6765C5"/>
</g>
<g filter="url(#filter5_d_56_26)">
<rect x="213" y="699" width="560" height="40" fill="white"/>
</g>
<defs>
<filter id="filter0_i_56_26" x="369" y="615" width="266" height="110" filterUnits="userSpaceOnUse" color-interpolation-filters="sRGB">
<feFlood flood-opacity="0" result="BackgroundImageFix"/>
<feBlend mode="normal" in="SourceGraphic" in2="BackgroundImageFix" result="shape"/>
<feColorMatrix in="SourceAlpha" type="matrix" values="0 0 0 0 0 0 0 0 0 0 0 0 0 0 0 0 0 0 127 0" result="hardAlpha"/>
<feOffset dy="10"/>
<feGaussianBlur stdDeviation="5"/>
<feComposite in2="hardAlpha" operator="arithmetic" k2="-1" k3="1"/>
<feColorMatrix type="matrix" values="0 0 0 0 0 0 0 0 0 0 0 0 0 0 0 0 0 0 0.48 0"/>
<feBlend mode="normal" in2="shape" result="effect1_innerShadow_56_26"/>
</filter>
<filter id="filter1_d_56_26" x="800" y="194" width="156" height="156" filterUnits="userSpaceOnUse" color-interpolation-filters="sRGB">
<feFlood flood-opacity="0" result="BackgroundImageFix"/>
<feColorMatrix in="SourceAlpha" type="matrix" values="0 0 0 0 0 0 0 0 0 0 0 0 0 0 0 0 0 0 127 0" result="hardAlpha"/>
<feOffset dy="4"/>
<feGaussianBlur stdDeviation="2"/>
<feComposite in2="hardAlpha" operator="out"/>
<feColorMatrix type="matrix" values="0 0 0 0 0 0 0 0 0 0 0 0 0 0 0 0 0 0 0.25 0"/>
<feBlend mode="normal" in2="BackgroundImageFix" result="effect1_dropShadow_56_26"/>
<feBlend mode="normal" in="SourceGraphic" in2="effect1_dropShadow_56_26" result="shape"/>
</filter>
<filter id="filter2_i_56_26" x="810" y="198" width="135" height="150" filterUnits="userSpaceOnUse" color-interpolation-filters="sRGB">
<feFlood flood-opacity="0" result="BackgroundImageFix"/>
<feBlend mode="normal" in="SourceGraphic" in2="BackgroundImageFix" result="shape"/>
<feColorMatrix in="SourceAlpha" type="matrix" values="0 0 0 0 0 0 0 0 0 0 0 0 0 0 0 0 0 0 127 0" result="hardAlpha"/>
<feOffset dy="20"/>
<feGaussianBlur stdDeviation="7.5"/>
<feComposite in2="hardAlpha" operator="arithmetic" k2="-1" k3="1"/>
<feColorMatrix type="matrix" values="0 0 0 0 0 0 0 0 0 0 0 0 0 0 0 0 0 0 0.25 0"/>
<feBlend mode="normal" in2="shape" result="effect1_innerShadow_56_26"/>
</filter>
<filter id="filter3_d_56_26" x="358" y="659" width="287" height="90" filterUnits="userSpaceOnUse" color-interpolation-filters="sRGB">
<feFlood flood-opacity="0" result="BackgroundImageFix"/>
<feColorMatrix in="SourceAlpha" type="matrix" values="0 0 0 0 0 0 0 0 0 0 0 0 0 0 0 0 0 0 127 0" result="hardAlpha"/>
<feOffset dy="-15"/>
<feGaussianBlur stdDeviation="11.5"/>
<feComposite in2="hardAlpha" operator="out"/>
<feColorMatrix type="matrix" values="0 0 0 0 0 0 0 0 0 0 0 0 0 0 0 0 0 0 0.25 0"/>
<feBlend mode="normal" in2="BackgroundImageFix" result="effect1_dropShadow_56_26"/>
<feBlend mode="normal" in="SourceGraphic" in2="effect1_dropShadow_56_26" result="shape"/>
</filter>
<filter id="filter4_d_56_26" x="207" y="693" width="573" height="52" filterUnits="userSpaceOnUse" color-interpolation-filters="sRGB">
<feFlood flood-opacity="0" result="BackgroundImageFix"/>
<feColorMatrix in="SourceAlpha" type="matrix" values="0 0 0 0 0 0 0 0 0 0 0 0 0 0 0 0 0 0 127 0" result="hardAlpha"/>
<feOffset/>
<feGaussianBlur stdDeviation="2"/>
<feComposite in2="hardAlpha" operator="out"/>
<feColorMatrix type="matrix" values="0 0 0 0 0 0 0 0 0 0 0 0 0 0 0 0 0 0 0.25 0"/>
<feBlend mode="normal" in2="BackgroundImageFix" result="effect1_dropShadow_56_26"/>
<feBlend mode="normal" in="SourceGraphic" in2="effect1_dropShadow_56_26" result="shape"/>
</filter>
<filter id="filter5_d_56_26" x="209" y="695" width="568" height="48" filterUnits="userSpaceOnUse" color-interpolation-filters="sRGB">
<feFlood flood-opacity="0" result="BackgroundImageFix"/>
<feColorMatrix in="SourceAlpha" type="matrix" values="0 0 0 0 0 0 0 0 0 0 0 0 0 0 0 0 0 0 127 0" result="hardAlpha"/>
<feOffset/>
<feGaussianBlur stdDeviation="2"/>
<feComposite in2="hardAlpha" operator="out"/>
<feColorMatrix type="matrix" values="0 0 0 0 0 0 0 0 0 0 0 0 0 0 0 0 0 0 0.25 0"/>
<feBlend mode="normal" in2="BackgroundImageFix" result="effect1_dropShadow_56_26"/>
<feBlend mode="normal" in="SourceGraphic" in2="effect1_dropShadow_56_26" result="shape"/>
</filter>
</defs>
</svg>
